<mxfile host="app.diagrams.net" modified="2021-04-22T14:05:59.151Z" agent="5.0 (Macintosh; Intel Mac OS X 10_15_3) AppleWebKit/537.36 (KHTML, like Gecko) Chrome/89.0.4389.90 Safari/537.36" etag="6ahojNaiySpzL7SMAww2" version="14.4.5" type="github">
  <diagram id="cCJnxMXBAtRdat_ASji1" name="Page-1">
    <mxGraphModel dx="946" dy="614" grid="1" gridSize="10" guides="1" tooltips="1" connect="1" arrows="1" fold="1" page="1" pageScale="1" pageWidth="850" pageHeight="1100" math="0" shadow="0">
      <root>
        <mxCell id="0" />
        <mxCell id="1" parent="0" />
        <mxCell id="f7P9pab2XVLLpQTwuehZ-1" value="" style="points=[];aspect=fixed;html=1;align=center;shadow=0;dashed=0;image;image=img/lib/allied_telesis/security/POE_DVS_Camera.svg;" vertex="1" parent="1">
          <mxGeometry x="200" y="40" width="51" height="40.2" as="geometry" />
        </mxCell>
        <mxCell id="f7P9pab2XVLLpQTwuehZ-2" value="" style="points=[];aspect=fixed;html=1;align=center;shadow=0;dashed=0;image;image=img/lib/allied_telesis/security/POE_DVS_Camera.svg;" vertex="1" parent="1">
          <mxGeometry x="320" y="40" width="51" height="40.2" as="geometry" />
        </mxCell>
        <mxCell id="f7P9pab2XVLLpQTwuehZ-3" value="" style="points=[];aspect=fixed;html=1;align=center;shadow=0;dashed=0;image;image=img/lib/allied_telesis/security/POE_DVS_Camera.svg;" vertex="1" parent="1">
          <mxGeometry x="440" y="40" width="51" height="40.2" as="geometry" />
        </mxCell>
        <mxCell id="f7P9pab2XVLLpQTwuehZ-4" value="" style="points=[];aspect=fixed;html=1;align=center;shadow=0;dashed=0;image;image=img/lib/allied_telesis/security/POE_DVS_Camera.svg;" vertex="1" parent="1">
          <mxGeometry x="560" y="40" width="51" height="40.2" as="geometry" />
        </mxCell>
        <mxCell id="f7P9pab2XVLLpQTwuehZ-5" value="计算主进程" style="rounded=1;whiteSpace=wrap;html=1;" vertex="1" parent="1">
          <mxGeometry x="183.5" y="200" width="84" height="40" as="geometry" />
        </mxCell>
        <mxCell id="f7P9pab2XVLLpQTwuehZ-6" value="&lt;span&gt;计算主进程&lt;/span&gt;" style="rounded=1;whiteSpace=wrap;html=1;" vertex="1" parent="1">
          <mxGeometry x="303.5" y="200" width="84" height="40" as="geometry" />
        </mxCell>
        <mxCell id="f7P9pab2XVLLpQTwuehZ-7" value="&lt;span&gt;计算主进程&lt;/span&gt;" style="rounded=1;whiteSpace=wrap;html=1;" vertex="1" parent="1">
          <mxGeometry x="423.5" y="200" width="84" height="40" as="geometry" />
        </mxCell>
        <mxCell id="f7P9pab2XVLLpQTwuehZ-8" value="&lt;span&gt;计算主进程&lt;/span&gt;" style="rounded=1;whiteSpace=wrap;html=1;" vertex="1" parent="1">
          <mxGeometry x="543.5" y="200" width="84" height="40" as="geometry" />
        </mxCell>
      </root>
    </mxGraphModel>
  </diagram>
</mxfile>
